<?xml version="1.0" standalone="no"?>
<svg width="32px" height="32px" viewBox="0 0 32 32" preserveAspectRatio="none" buffered-rendering="static" xmlns="http://www.w3.org/2000/svg" xmlns:xlink="http://www.w3.org/1999/xlink" shape-rendering="crispEdges" >
<desc >
This file was created by http://www.h2.dion.ne.jp/~defghi/dot2svg/dot2svg2.htm at Sun Jul 27 2014 23:33:22 GMT+0900 (JST)
</desc>
<path fill="#ff0000" d="M0,0h32v32h-32zM16,6h-1v1h-1v1h-1v1h-2v-1h-1v2h1v1h1v2h1v1h-3v1h1v2h-1v1h-2v2h-2v1h-3v1h4v-1h5v1h1v1h-1v1h3v-2h2v2h3v-1h-1v-1h1v-1h1v1h1v1h3v-1h1v-8h-1v-1h-3v1h-3v-1h1v-2h1v-1h1v-2h-1v1h-2v-1h-1v-1h-2zM12,18h1v1h-1v1h-1v-1h1zM19,18h1v1h-1v-1z" />
<path fill="#c0c0c0" d="M15,6h1v1h-1zM15,9h1v1h-1zM22,17h1v1h1v1h-1v-1h-1zM13,18h2v1h-2zM16,18h1v1h-1zM6,20h2v1h-1v1h-1zM12,21h2v1h-2zM17,21h1v1h-1v-1z" />
<path fill="#0e82fb" d="M14,7h1v3h1v2h-2v-1h-2v-1h-1v-1h2v-1h1zM12,14h1v1h1v1h2v2h-2v-2h-1v-1h-1zM23,15h1v3h-1v-1h-1v-1h1zM8,19h1v1h-1zM13,19h1v1h-1v1h-1v-1h1zM15,19h1v3h-1zM23,20h1v1h-1zM13,22h1v1h-1v1h-1v-1h1v-1z" />
<path fill="#ffffff" d="M15,7h1v2h-1zM13,13h1v1h-1zM15,18h1v1h-1zM3,21h3v1h-3v-1z" />
<path fill="#808080" d="M16,7h1v3h-1zM13,12h1v1h-1zM18,12h1v2h-1zM25,17h1v1h-1v1h-1v1h-1v-1h-1v-1h1v1h1v-1h1zM11,18h1v1h-1zM17,18h2v1h-2zM14,21h1v1h-1zM18,21h2v1h-2v-1z" />
<path fill="#005ab8" d="M17,7h1v1h1v1h1v1h-1v1h-1v1h-2v1h-2v-1h-1v1h-1v-1h1v-1h1v1h2v-2h1zM24,13h1v1h-1zM19,14h1v2h-1v1h-1v1h-2v-2h-2v-1h2v1h3zM11,15h1v1h1v1h1v1h-2v-2h-1zM24,15h1v1h1v1h-1v1h1v1h-1v4h-2v-1h1v-3h1v-1h-1zM16,19h1v3h1v2h-1v-2h-1zM18,19h1v1h1v1h-1v-1h-1zM8,20h1v1h-1zM14,22h1v2h-2v-1h1v-1z" />
<path fill="#36a8fc" d="M10,8h1v2h1v1h1v1h-1v-1h-1v-1h-1zM22,13h2v1h-2v2h-1v4h1v2h1v1h-1v-1h-1v-2h-1v-5h1v-1h1zM10,14h2v1h1v1h1v1h-1v-1h-1v-1h-2zM12,19h1v1h-1v1h-1v-1h1v-1z" />
<path fill="#013e79" d="M21,8h1v2h-1v1h-1v2h-1v-1h-1v1h-2v-1h2v-1h1v-1h1v-1h1zM20,14h1v1h-1zM22,14h4v2h-1v-1h-2v1h-1v3h1v2h1v1h-2v-2h-1v1h-1v-1h-1v1h-2v-2h1v1h1v-1h1v1h1v-4h1zM16,15h3v1h1v2h-2v-1h1v-1h-3zM14,19h1v2h-2v-1h1zM25,19h1v3h-1zM18,22h1v1h1v1h-2v-2z" />
<path fill="#334a0d" d="M14,13h1v1h-1zM17,13h1v1h-1v-1z" />
<path fill="#b9835f" d="M15,13h2v1h-2zM13,14h1v1h-1zM18,14h1v1h-1zM11,16h1v2h-1v-2z" />
<path fill="#ffc39e" d="M14,14h2v1h-2zM10,17h1v1h-1v1h-1v-1h1v-1z" />
<path fill="#d19a7b" d="M16,14h2v1h-2zM10,18h1v2h-1v1h-1v-1h1v-2z" />
<path fill="#00ff81" d="M8,18h1v1h1v1h-1v-1h-1v-1z" />
<path fill="#008f54" d="M10,20h1v1h-1v-1z" />
<desc >
色数:14
</desc>
</svg>
