<?xml version="1.0" encoding="UTF-8" standalone="no"?>
<svg xmlns="http://www.w3.org/2000/svg" buffered-rendering="static" height="32px" shape-rendering="crispEdges" width="32px" preserveAspectRatio="none" xmlns:xlink="http://www.w3.org/1999/xlink" viewBox="0 0 32 32">
 <desc>This file was created by http://www.h2.dion.ne.jp/~defghi/dot2svg/dot2svg2.htm at Sun Jul 27 2014 23:33:22 GMT+0900 (JST)</desc>
 <path d="m0 0h32v32h-32zm16 6h-1v1h-1v1h-1v1h-2v-1h-1v2h1v1h1v2h1v1h-3v1h1v2h-1v1h-2v2h-2v1h-3v1h4v-1h5v1h1v1h-1v1h3v-2h2v2h3v-1h-1v-1h1v-1h1v1h1v1h3v-1h1v-8h-1v-1h-3v1h-3v-1h1v-2h1v-1h1v-2h-1v1h-2v-1h-1v-1h-2zm-4 12h1v1h-1v1h-1v-1h1zm7 0h1v1h-1v-1z" fill="#f00"/>
 <path d="m15 6h1v1h-1zm0 3h1v1h-1zm7 8h1v1h1v1h-1v-1h-1zm-9 1h2v1h-2zm3 0h1v1h-1zm-10 2h2v1h-1v1h-1zm6 1h2v1h-2zm5 0h1v1h-1v-1z" fill="#c0c0c0"/>
 <path d="m14 7h1v3h1v2h-2v-1h-2v-1h-1v-1h2v-1h1zm-2 7h1v1h1v1h2v2h-2v-2h-1v-1h-1zm11 1h1v3h-1v-1h-1v-1h1zm-15 4h1v1h-1zm5 0h1v1h-1v1h-1v-1h1zm2 0h1v3h-1zm8 1h1v1h-1zm-10 2h1v1h-1v1h-1v-1h1v-1z" fill="#0e82fb"/>
 <path d="m15 7h1v2h-1zm-2 6h1v1h-1zm2 5h1v1h-1zm-12 3h3v1h-3v-1z" fill="#fff"/>
 <path d="m16 7h1v3h-1zm-3 5h1v1h-1zm5 0h1v2h-1zm7 5h1v1h-1v1h-1v1h-1v-1h-1v-1h1v1h1v-1h1zm-14 1h1v1h-1zm6 0h2v1h-2zm-3 3h1v1h-1zm4 0h2v1h-2v-1z" fill="#808080"/>
 <path d="m17 7h1v1h1v1h1v1h-1v1h-1v1h-2v1h-2v-1h-1v1h-1v-1h1v-1h1v1h2v-2h1zm7 6h1v1h-1zm-5 1h1v2h-1v1h-1v1h-2v-2h-2v-1h2v1h3zm-8 1h1v1h1v1h1v1h-2v-2h-1zm13 0h1v1h1v1h-1v1h1v1h-1v4h-2v-1h1v-3h1v-1h-1zm-8 4h1v3h1v2h-1v-2h-1zm2 0h1v1h1v1h-1v-1h-1zm-10 1h1v1h-1zm6 2h1v2h-2v-1h1v-1z" fill="#005ab8"/>
 <path d="m10 8h1v2h1v1h1v1h-1v-1h-1v-1h-1zm12 5h2v1h-2v2h-1v4h1v2h1v1h-1v-1h-1v-2h-1v-5h1v-1h1zm-12 1h2v1h1v1h1v1h-1v-1h-1v-1h-2zm2 5h1v1h-1v1h-1v-1h1v-1z" fill="#36a8fc"/>
 <path d="m21 8h1v2h-1v1h-1v2h-1v-1h-1v1h-2v-1h2v-1h1v-1h1v-1h1zm-1 6h1v1h-1zm2 0h4v2h-1v-1h-2v1h-1v3h1v2h1v1h-2v-2h-1v1h-1v-1h-1v1h-2v-2h1v1h1v-1h1v1h1v-4h1zm-6 1h3v1h1v2h-2v-1h1v-1h-3zm-2 4h1v2h-2v-1h1zm11 0h1v3h-1zm-7 3h1v1h1v1h-2v-2z" fill="#013e79"/>
 <path d="m14 13h1v1h-1zm3 0h1v1h-1v-1z" fill="#334a0d"/>
 <path d="m15 13h2v1h-2zm-2 1h1v1h-1zm5 0h1v1h-1zm-7 2h1v2h-1v-2z" fill="#b9835f"/>
 <path d="m14 14h2v1h-2zm-4 3h1v1h-1v1h-1v-1h1v-1z" fill="#ffc39e"/>
 <path d="m16 14h2v1h-2zm-6 4h1v2h-1v1h-1v-1h1v-2z" fill="#d19a7b"/>
 <path d="m8 18h1v1h1v1h-1v-1h-1v-1z" fill="#00ff81"/>
 <path d="m10 20h1v1h-1v-1z" fill="#008f54"/>
 <desc>色数:14</desc>
</svg>
